<svg xmlns="http://www.w3.org/2000/svg" width="117" height="112" viewBox="0 0 117 112">
  <metadata><?xpacket begin="﻿" id="W5M0MpCehiHzreSzNTczkc9d"?>
<x:xmpmeta xmlns:x="adobe:ns:meta/" x:xmptk="Adobe XMP Core 5.6-c138 79.159824, 2016/09/14-01:09:01        ">
   <rdf:RDF xmlns:rdf="http://www.w3.org/1999/02/22-rdf-syntax-ns#">
      <rdf:Description rdf:about=""/>
   </rdf:RDF>
</x:xmpmeta>
                                                                                                    
                                                                                                    
                                                                                                    
                                                                                                    
                                                                                                    
                                                                                                    
                                                                                                    
                                                                                                    
                                                                                                    
                                                                                                    
                                                                                                    
                                                                                                    
                                                                                                    
                                                                                                    
                                                                                                    
                                                                                                    
                                                                                                    
                                                                                                    
                                                                                                    
                                                                                                    
                           
<?xpacket end="w"?></metadata>
<defs>
    <style>
      .cls-1 {
        fill: #73b4ed;
        fill-rule: evenodd;
      }
    </style>
  </defs>
  <path id="Shape_1_копия_2" data-name="Shape 1 копия 2" class="cls-1" d="M1474.76,10339.6h-50.64v-3a2.62,2.62,0,0,0-5.24,0v3h-50.64a5.2,5.2,0,0,0-5.24,5.2v4.9a5.29,5.29,0,0,0,5.24,5.3h0.71v59a5.3,5.3,0,0,0,5.25,5.3h44.68v7.7l-19.42,14.3a2.551,2.551,0,0,0-.57,3.6,2.657,2.657,0,0,0,3.67.6l16.32-12v9.9a2.62,2.62,0,0,0,5.24,0v-9.9l16.32,12a2.937,2.937,0,0,0,1.55.5,2.659,2.659,0,0,0,2.12-1.1,2.551,2.551,0,0,0-.57-3.6l-19.42-14.3v-7.7h44.68a5.3,5.3,0,0,0,5.25-5.3v-59h0.71a5.29,5.29,0,0,0,5.24-5.3v-4.9A5.2,5.2,0,0,0,1474.76,10339.6Zm-5.96,74.4h-94.6v-59h94.6v59h0Zm5.96-64.3H1368.24v-4.9h106.52v4.9h0Zm-78.02,52.3a2.9,2.9,0,0,0,1.93-.8l11.92-12.1,11.65,7.9a2.674,2.674,0,0,0,3.45-.4l17.85-18.1v2.4a2.731,2.731,0,1,0,5.46,0v-9.1a2.731,2.731,0,0,0-2.73-2.8h-9a2.75,2.75,0,0,0,0,5.5h2.41l-16.27,16.6-11.65-7.9a2.773,2.773,0,0,0-3.44.3l-13.51,13.8a2.77,2.77,0,0,0,0,3.9A2.859,2.859,0,0,0,1396.74,10402Z" transform="translate(-1363 -10334)"/>
</svg>
