<svg xmlns="http://www.w3.org/2000/svg" width="146" height="100" viewBox="0 0 146 100">
  <metadata><?xpacket begin="﻿" id="W5M0MpCehiHzreSzNTczkc9d"?>
<x:xmpmeta xmlns:x="adobe:ns:meta/" x:xmptk="Adobe XMP Core 5.6-c138 79.159824, 2016/09/14-01:09:01        ">
   <rdf:RDF xmlns:rdf="http://www.w3.org/1999/02/22-rdf-syntax-ns#">
      <rdf:Description rdf:about=""/>
   </rdf:RDF>
</x:xmpmeta>
                                                                                                    
                                                                                                    
                                                                                                    
                                                                                                    
                                                                                                    
                                                                                                    
                                                                                                    
                                                                                                    
                                                                                                    
                                                                                                    
                                                                                                    
                                                                                                    
                                                                                                    
                                                                                                    
                                                                                                    
                                                                                                    
                                                                                                    
                                                                                                    
                                                                                                    
                                                                                                    
                           
<?xpacket end="w"?></metadata>
<defs>
    <style>
      .cls-1 {
        fill: #73b4ed;
        stroke: #fff;
        stroke-width: 1px;
        fill-rule: evenodd;
      }
    </style>
  </defs>
  <path id="Прямоугольник_скругл._углы_602" data-name="Прямоугольник, скругл. углы 602" class="cls-1" d="M566.614,10418.3H531.342a3.805,3.805,0,0,0-3.815,3.8l-0.031.7H508.107v-0.7a3.805,3.805,0,0,0-3.815-3.8h-35.21a3.8,3.8,0,1,0,0,7.6h32.107a7.661,7.661,0,0,0,6.949,4.4H527.5a7.593,7.593,0,0,0,6.949-4.4h32.138a3.806,3.806,0,0,0,3.816-3.8A3.76,3.76,0,0,0,566.614,10418.3Zm16.8-3.5h-6.883v-65.4a1.054,1.054,0,0,0-.029-0.3,9.932,9.932,0,0,0-9.819-9.1H462.023a9.462,9.462,0,0,0-9.522,9.4v65.4h-6.852a3.616,3.616,0,0,0-3.649,3.6v6.8a13.9,13.9,0,0,0,13.972,13.8H573.028A13.9,13.9,0,0,0,587,10425.2v-6.8A3.529,3.529,0,0,0,583.411,10414.8Zm-3.619,10.4a6.7,6.7,0,0,1-6.705,6.6H456a6.7,6.7,0,0,1-6.734-6.6v-3.2h6.852a3.615,3.615,0,0,0,3.649-3.6v-69a2.237,2.237,0,0,1,2.254-2.2H566.68a2.69,2.69,0,0,1,2.581,2.4v68.7a3.721,3.721,0,0,0,3.648,3.7h6.883v3.2Zm-70.981-62.1h36.644a2,2,0,0,1,2,2v1.5a2,2,0,0,1-2,2H508.811a2,2,0,0,1-2-2v-1.5A2,2,0,0,1,508.811,10363.1Zm0,12.1h44.333a2,2,0,0,1,2,2v1.5a2,2,0,0,1-2,2H508.811a2,2,0,0,1-2-2v-1.5A2,2,0,0,1,508.811,10375.2Zm0,12.1H534.47a2,2,0,0,1,2,2v1.5a2,2,0,0,1-2,2H508.811a2,2,0,0,1-2-2v-1.5A2,2,0,0,1,508.811,10387.3Zm-38.447-24.2h25.659a2,2,0,0,1,2,2v14.7a2,2,0,0,1-2,2H470.364a2,2,0,0,1-2-2v-14.7A2,2,0,0,1,470.364,10363.1Z" transform="translate(-441.5 -10339.5)"/>
</svg>
