<svg xmlns="http://www.w3.org/2000/svg" width="105" height="105" viewBox="0 0 105 105">
  <metadata><?xpacket begin="﻿" id="W5M0MpCehiHzreSzNTczkc9d"?>
<x:xmpmeta xmlns:x="adobe:ns:meta/" x:xmptk="Adobe XMP Core 5.6-c138 79.159824, 2016/09/14-01:09:01        ">
   <rdf:RDF xmlns:rdf="http://www.w3.org/1999/02/22-rdf-syntax-ns#">
      <rdf:Description rdf:about=""/>
   </rdf:RDF>
</x:xmpmeta>
                                                                                                    
                                                                                                    
                                                                                                    
                                                                                                    
                                                                                                    
                                                                                                    
                                                                                                    
                                                                                                    
                                                                                                    
                                                                                                    
                                                                                                    
                                                                                                    
                                                                                                    
                                                                                                    
                                                                                                    
                                                                                                    
                                                                                                    
                                                                                                    
                                                                                                    
                                                                                                    
                           
<?xpacket end="w"?></metadata>
<defs>
    <style>
      .cls-1 {
        fill: #73b4ed;
        fill-rule: evenodd;
      }
    </style>
  </defs>
  <path id="Forma_1" data-name="Forma 1" class="cls-1" d="M1125.76,10415.8a12,12,0,0,0,2.01-6.7,12.258,12.258,0,0,0-6.45-10.8,37.832,37.832,0,0,0-15.48-25.9,15.527,15.527,0,0,0-11.04-12.4,12.071,12.071,0,0,0,2-6.7,12.3,12.3,0,0,0-24.6,0,12.071,12.071,0,0,0,2,6.7,15.527,15.527,0,0,0-11.04,12.4,37.832,37.832,0,0,0-15.48,25.9,12.258,12.258,0,0,0-6.45,10.8,12,12,0,0,0,2.01,6.7,15.418,15.418,0,0,0-11.24,14.8v12.3a3.1,3.1,0,0,0,3.08,3.1h36.91a3.1,3.1,0,0,0,3.08-3.1v-4.3a44.962,44.962,0,0,0,18.86,0v4.3a3.1,3.1,0,0,0,3.08,3.1h36.91a3.1,3.1,0,0,0,3.08-3.1v-12.3A15.418,15.418,0,0,0,1125.76,10415.8Zm-4.14-6.7a6.155,6.155,0,0,1-12.31,0A6.155,6.155,0,1,1,1121.62,10409.1Zm-37.12-61.9a6.109,6.109,0,0,1,6.15,6.1,6.15,6.15,0,1,1-12.3,0A6.109,6.109,0,0,1,1084.5,10347.2Zm-15.38,27.6a9.208,9.208,0,0,1,9.23-9.2h12.3a9.208,9.208,0,0,1,9.23,9.2v9.3h-30.76v-9.3Zm-15.59,28.1a6.2,6.2,0,0,1,6.16,6.2,6.155,6.155,0,0,1-12.31,0A6.2,6.2,0,0,1,1053.53,10402.9Zm15.38,36.9h-30.76v-9.2a9.208,9.208,0,0,1,9.23-9.2h12.31a9.206,9.206,0,0,1,9.22,9.2v9.2Zm25.02-9.2v1.7a37.652,37.652,0,0,1-18.86,0v-1.7a15.43,15.43,0,0,0-11.24-14.8,12,12,0,0,0,2.01-6.7,12.3,12.3,0,0,0-11.68-12.3,32.263,32.263,0,0,1,8.81-16.2v6.5a3.09,3.09,0,0,0,3.07,3.1h36.92a3.09,3.09,0,0,0,3.07-3.1v-6.5a32.263,32.263,0,0,1,8.81,16.2,12.3,12.3,0,0,0-11.68,12.3,12,12,0,0,0,2.01,6.7A15.43,15.43,0,0,0,1093.93,10430.6Zm36.92,9.2h-30.76v-9.2a9.206,9.206,0,0,1,9.22-9.2h12.31a9.208,9.208,0,0,1,9.23,9.2v9.2Zm-34.95-42.3a3.078,3.078,0,0,0-4.35,0l-10.13,10.1-3.97-4a3.078,3.078,0,0,0-4.35,0,3.12,3.12,0,0,0,0,4.4l6.15,6.1a3.078,3.078,0,0,0,4.35,0l12.3-12.3A3.018,3.018,0,0,0,1095.9,10397.5Z" transform="translate(-1032 -10341)"/>
</svg>
