<svg xmlns="http://www.w3.org/2000/svg" width="117" height="112" viewBox="0 0 117 112">
  <metadata><?xpacket begin="﻿" id="W5M0MpCehiHzreSzNTczkc9d"?>
<x:xmpmeta xmlns:x="adobe:ns:meta/" x:xmptk="Adobe XMP Core 5.6-c138 79.159824, 2016/09/14-01:09:01        ">
   <rdf:RDF xmlns:rdf="http://www.w3.org/1999/02/22-rdf-syntax-ns#">
      <rdf:Description rdf:about=""/>
   </rdf:RDF>
</x:xmpmeta>
                                                                                                    
                                                                                                    
                                                                                                    
                                                                                                    
                                                                                                    
                                                                                                    
                                                                                                    
                                                                                                    
                                                                                                    
                                                                                                    
                                                                                                    
                                                                                                    
                                                                                                    
                                                                                                    
                                                                                                    
                                                                                                    
                                                                                                    
                                                                                                    
                                                                                                    
                                                                                                    
                           
<?xpacket end="w"?></metadata>
<defs>
    <style>
      .cls-1 {
        fill: #73b4ed;
        fill-rule: evenodd;
      }
    </style>
  </defs>
  <path class="cls-1" d="M844.758,10339.6H794.121v-3a2.621,2.621,0,0,0-5.242,0v3H738.242a5.206,5.206,0,0,0-5.242,5.2v4.9a5.291,5.291,0,0,0,5.242,5.3h0.712v59a5.292,5.292,0,0,0,5.242,5.3h44.683v7.7l-19.422,14.3a2.547,2.547,0,0,0-.563,3.6,2.649,2.649,0,0,0,3.663.6l16.322-12v9.9a2.621,2.621,0,0,0,5.242,0v-9.9l16.322,12a2.928,2.928,0,0,0,1.548.5,2.646,2.646,0,0,0,2.115-1.1,2.547,2.547,0,0,0-.563-3.6l-19.422-14.3v-7.7H838.8a5.292,5.292,0,0,0,5.242-5.3v-59h0.712a5.292,5.292,0,0,0,5.242-5.3v-4.9A5.206,5.206,0,0,0,844.758,10339.6ZM838.8,10414H744.2v-59H838.8v59h0Zm5.954-64.3H738.242v-4.9H844.758v4.9h0Zm-53.308,12.9a2.311,2.311,0,0,0-2.359,2.3v18.2H771a2.311,2.311,0,0,0-2.359,2.3A22.807,22.807,0,1,0,791.45,10362.6Zm0,41a18.146,18.146,0,0,1-17.935-15.8H791.45a2.4,2.4,0,0,0,2.359-2.4v-17.9A18.13,18.13,0,0,1,791.45,10403.6Zm-7.983-43.5a17.325,17.325,0,0,0-17.262,17.3,2.4,2.4,0,0,0,2.359,2.4h14.9a2.4,2.4,0,0,0,2.358-2.4v-14.9A2.4,2.4,0,0,0,783.467,10360.1Zm-2.359,15h-9.963a12.455,12.455,0,0,1,9.963-10v10Z" transform="translate(-733 -10334)"/>
</svg>
