<svg xmlns="http://www.w3.org/2000/svg" width="47.563" height="26.66" viewBox="0 0 47.563 26.66">
  <metadata><?xpacket begin="﻿" id="W5M0MpCehiHzreSzNTczkc9d"?>
<x:xmpmeta xmlns:x="adobe:ns:meta/" x:xmptk="Adobe XMP Core 5.6-c138 79.159824, 2016/09/14-01:09:01        ">
   <rdf:RDF xmlns:rdf="http://www.w3.org/1999/02/22-rdf-syntax-ns#">
      <rdf:Description rdf:about=""/>
   </rdf:RDF>
</x:xmpmeta>                
<?xpacket end="w"?></metadata>
<defs>
    <style>
      .cls-1 {
        fill: #fa9300;
        fill-rule: evenodd;
      }
    </style>
  </defs>
  <path class="cls-1" d="M704.543,9596.98a10.58,10.58,0,0,0-13.893-5.33l-18.29,8.02a7.3,7.3,0,0,0-3.752,9.65,7.406,7.406,0,0,0,9.725,3.73l4.813-2.11c2.247-.98,4.307-0.51,6.693.04,2.725,0.62,5.814,1.33,9.344-.22A10.42,10.42,0,0,0,704.543,9596.98Zm10.614,8.82a4.7,4.7,0,0,0-1.536-1.86,3.61,3.61,0,0,0-.912-5.89,3.1,3.1,0,0,0,.089-2.69,3.153,3.153,0,0,0-2.066-1.74,3.1,3.1,0,0,0-.219-1.83,3.159,3.159,0,0,0-2.962-1.86,3.021,3.021,0,0,0-.252-1.06,3.174,3.174,0,0,0-4.168-1.6,3.123,3.123,0,0,0-1.608,4.13,3.186,3.186,0,0,0,2.962,1.87,3.054,3.054,0,0,0,2.318,2.8,3.111,3.111,0,0,0,.219,1.83,3.179,3.179,0,0,0,1.075,1.28,3.612,3.612,0,0,0-.389,3.6,3.461,3.461,0,0,0,.629.94,4.673,4.673,0,0,0-1.844,5.88,4.762,4.762,0,0,0,6.252,2.4A4.687,4.687,0,0,0,715.157,9605.8Zm-10.318-14.71a1.057,1.057,0,0,1-1.39-.53,1.042,1.042,0,0,1,.536-1.38,1.065,1.065,0,0,1,1.389.53A1.041,1.041,0,0,1,704.839,9591.09Zm3.213,2.92a1.046,1.046,0,1,1-.853-1.91,1.06,1.06,0,0,1,1.389.54A1.034,1.034,0,0,1,708.052,9594.01Zm2.285,3.57a1.046,1.046,0,1,1-.853-1.91,1.061,1.061,0,0,1,1.389.54A1.034,1.034,0,0,1,710.337,9597.58Zm-0.7,4.36a1.564,1.564,0,0,1,.8-2.07,1.586,1.586,0,0,1,2.083.8,1.565,1.565,0,0,1-.8,2.07A1.587,1.587,0,0,1,709.634,9601.94Zm2.258,8.15a2.617,2.617,0,1,1,1.34-3.44A2.6,2.6,0,0,1,711.892,9610.09Z" transform="translate(-668 -9587)"/>
</svg>
