<svg xmlns="http://www.w3.org/2000/svg" width="47.312" height="26.91" viewBox="0 0 47.312 26.91">
  <metadata><?xpacket begin="﻿" id="W5M0MpCehiHzreSzNTczkc9d"?>
<x:xmpmeta xmlns:x="adobe:ns:meta/" x:xmptk="Adobe XMP Core 5.6-c138 79.159824, 2016/09/14-01:09:01        ">
   <rdf:RDF xmlns:rdf="http://www.w3.org/1999/02/22-rdf-syntax-ns#">
      <rdf:Description rdf:about=""/>
   </rdf:RDF>
</x:xmpmeta>                  
<?xpacket end="w"?></metadata>
<defs>
    <style>
      .cls-1 {
        fill: #fff;
        fill-rule: evenodd;
      }
    </style>
  </defs>
  <path id="Shape_1_копия" data-name="Shape 1 копия" class="cls-1" d="M770.964,9610.92a10.467,10.467,0,0,1-13.818,5.39l-18.194-8.1a7.411,7.411,0,0,1-3.732-9.74,7.335,7.335,0,0,1,9.674-3.77l4.787,2.13c2.235,1,4.284.52,6.657-.03,2.711-.63,5.783-1.35,9.294.21A10.582,10.582,0,0,1,770.964,9610.92Zm-6.18-11.98c-5.746-2.55-10.207,2.38-15.952-.18-1.915-.85-2.471-1.1-4.787-2.13a5.271,5.271,0,0,0-4.244,9.65c1.561,0.69,16.263,7.24,18.193,8.1a8.37,8.37,0,0,0,11.055-4.31A8.459,8.459,0,0,0,764.784,9598.94Zm16.738,3.08a4.679,4.679,0,0,1-1.528,1.88,3.707,3.707,0,0,1,.821,4.15,3.652,3.652,0,0,1-1.728,1.8,11.43,11.43,0,0,0-2.184,6.31,3.153,3.153,0,0,1-2.946,1.89,3.13,3.13,0,0,1-4.4,2.68,338.09,338.09,0,0,1,1.6-7.13,3.13,3.13,0,0,1,2.055-1.75,3.174,3.174,0,0,1,.218-1.85,3.14,3.14,0,0,1,1.07-1.29,3.615,3.615,0,0,1,.238-4.59,4.76,4.76,0,0,1-1.834-5.94,4.71,4.71,0,0,1,6.219-2.42A4.765,4.765,0,0,1,781.522,9602.02Zm-10.264,14.85a1.045,1.045,0,0,0-1.382.54A1.048,1.048,0,1,0,771.258,9616.87Zm3.2-2.95a1.045,1.045,0,0,0-1.382.54A1.048,1.048,0,1,0,774.455,9613.92Zm2.272-3.6a1.041,1.041,0,0,0-1.382.53,1.067,1.067,0,0,0,.534,1.4A1.054,1.054,0,0,0,776.727,9610.32Zm-0.7-4.4a1.59,1.59,0,0,0,.8,2.09,1.57,1.57,0,0,0,2.072-.81,1.59,1.59,0,0,0-.8-2.09A1.572,1.572,0,0,0,776.028,9605.92Zm2.246-8.23a2.633,2.633,0,1,0,1.333,3.48A2.646,2.646,0,0,0,778.274,9597.69Z" transform="translate(-734.594 -9594.09)"/>
</svg>
