<svg width="47.312" height="26.91" xmlns="http://www.w3.org/2000/svg">
 <metadata>
 </metadata>
 <defs>
  <style>.cls-1 {
        fill: #fa9300;
        fill-rule: evenodd;
      }</style>
 </defs>
 <g>
  <title>background</title>
  <rect fill="none" id="canvas_background" height="402" width="582" y="-1" x="-1"/>
 </g>
 <g>
  <title>Layer 1</title>
  <path fill="none" d="m36.366299,16.752955a10.467,10.467 0 0 1 -13.818,5.39l-18.194,-8.1a7.411,7.411 0 0 1 -3.732,-9.74a7.335,7.335 0 0 1 9.674,-3.77l4.787,2.13c2.235,1 4.284,0.52 6.657,-0.03c2.711,-0.63 5.783,-1.35 9.294,0.21a10.582,10.582 0 0 1 5.332,13.91zm10.558,-8.9a4.679,4.679 0 0 1 -1.528,1.88a3.707,3.707 0 0 1 0.821,4.15a3.652,3.652 0 0 1 -1.728,1.8a11.43,11.43 0 0 0 -2.184,6.31a3.153,3.153 0 0 1 -2.946,1.89a3.13,3.13 0 0 1 -4.4,2.68a338.09,338.09 0 0 1 1.6,-7.13a3.13,3.13 0 0 1 2.055,-1.75a3.174,3.174 0 0 1 0.218,-1.85a3.14,3.14 0 0 1 1.07,-1.29a3.615,3.615 0 0 1 0.238,-4.59a4.76,4.76 0 0 1 -1.834,-5.94a4.71,4.71 0 0 1 6.219,-2.42a4.765,4.765 0 0 1 2.399,6.26zm-10.264,14.85a1.045,1.045 0 0 0 -1.382,0.54a1.048,1.048 0 1 0 1.382,-0.54zm3.2,-2.95a1.045,1.045 0 0 0 -1.382,0.54a1.048,1.048 0 1 0 1.379,-0.54l0.003,0zm2.272,-3.6a1.041,1.041 0 0 0 -1.382,0.53a1.067,1.067 0 0 0 0.534,1.4a1.054,1.054 0 0 0 0.845,-1.93l0.003,0zm-0.7,-4.4a1.59,1.59 0 0 0 0.8,2.09a1.57,1.57 0 0 0 2.072,-0.81a1.59,1.59 0 0 0 -0.8,-2.09a1.572,1.572 0 0 0 -2.074,0.81l0.002,0zm2.246,-8.23a2.633,2.633 0 1 0 1.333,3.48a2.646,2.646 0 0 0 -1.335,-3.48l0.002,0z" class="cls-1" id="Shape_1_копия"/>
  <ellipse ry="0.078125" id="svg_2" cy="15.478924" cx="19.671629" stroke-width="null" fill="none"/>
 </g>
</svg>