<svg xmlns="http://www.w3.org/2000/svg" width="47.562" height="26.66" viewBox="0 0 47.562 26.66">
  <metadata><?xpacket begin="﻿" id="W5M0MpCehiHzreSzNTczkc9d"?>
<x:xmpmeta xmlns:x="adobe:ns:meta/" x:xmptk="Adobe XMP Core 5.6-c138 79.159824, 2016/09/14-01:09:01        ">
   <rdf:RDF xmlns:rdf="http://www.w3.org/1999/02/22-rdf-syntax-ns#">
      <rdf:Description rdf:about=""/>
   </rdf:RDF>
</x:xmpmeta>
                                                                                                    
                                                                                                    
                                                                                                    
                                                                                                    
                                                                                                    
                                                                                                    
                                                                                                    
                                                                                                    
                                                                                                    
                                                                                                    
                                                                                                    
                                                                                                    
                                                                                                    
                                                                                                    
                                                                                                    
                                                                                                    
                                                                                                    
                                                                                                    
                                                                                                    
                                                                                                    
                           
<?xpacket end="w"?></metadata>
<defs>
    <style>
      .cls-1 {
        fill: #fff;
        fill-rule: evenodd;
      }
    </style>
  </defs>
  <path id="Shape_1_копия_2" data-name="Shape 1 копия 2" class="cls-1" d="M837.475,9596.98a10.58,10.58,0,0,0-13.893-5.33l-18.29,8.02a7.3,7.3,0,0,0-3.752,9.65,7.406,7.406,0,0,0,9.725,3.73l4.813-2.11c2.247-.98,4.307-0.51,6.693.04,2.725,0.62,5.814,1.33,9.343-.22A10.421,10.421,0,0,0,837.475,9596.98Zm-6.214,11.87c-5.776,2.53-10.261-2.35-16.036.18-1.925.84-2.485,1.09-4.813,2.11a5.284,5.284,0,0,1-6.947-2.67,5.205,5.205,0,0,1,2.68-6.89c1.57-.68,16.35-7.17,18.29-8.02a8.448,8.448,0,0,1,11.114,4.27A8.323,8.323,0,0,1,831.261,9608.85Zm16.828-3.05a4.69,4.69,0,0,0-1.537-1.86,3.609,3.609,0,0,0-.911-5.89,3.1,3.1,0,0,0,.088-2.69,3.151,3.151,0,0,0-2.065-1.74,3.1,3.1,0,0,0-.219-1.83,3.16,3.16,0,0,0-2.962-1.86,3.021,3.021,0,0,0-.252-1.06,3.174,3.174,0,0,0-4.168-1.6,3.123,3.123,0,0,0-1.608,4.13,3.185,3.185,0,0,0,2.962,1.87,3.054,3.054,0,0,0,2.318,2.8,3.11,3.11,0,0,0,.218,1.83,3.189,3.189,0,0,0,1.076,1.28,3.612,3.612,0,0,0-.389,3.6,3.461,3.461,0,0,0,.629.94,4.673,4.673,0,0,0-1.844,5.88,4.762,4.762,0,0,0,6.252,2.4A4.687,4.687,0,0,0,848.089,9605.8Zm-10.319-14.71a1.057,1.057,0,0,1-1.389-.53,1.041,1.041,0,0,1,.536-1.38,1.065,1.065,0,0,1,1.389.53A1.041,1.041,0,0,1,837.77,9591.09Zm3.214,2.92a1.046,1.046,0,1,1-.853-1.91,1.061,1.061,0,0,1,1.389.54A1.034,1.034,0,0,1,840.984,9594.01Zm2.285,3.57a1.046,1.046,0,1,1-.854-1.91,1.06,1.06,0,0,1,1.389.54A1.033,1.033,0,0,1,843.269,9597.58Zm-0.7,4.36a1.564,1.564,0,0,1,.8-2.07,1.586,1.586,0,0,1,2.083.8,1.564,1.564,0,0,1-.8,2.07A1.586,1.586,0,0,1,842.566,9601.94Zm2.257,8.15a2.617,2.617,0,1,1,1.34-3.44A2.6,2.6,0,0,1,844.823,9610.09Z" transform="translate(-800.938 -9587)"/>
</svg>
