<svg id="инстаграм" xmlns="http://www.w3.org/2000/svg" width="57" height="57" viewBox="0 0 57 57">
  <metadata><?xpacket begin="﻿" id="W5M0MpCehiHzreSzNTczkc9d"?>
<x:xmpmeta xmlns:x="adobe:ns:meta/" x:xmptk="Adobe XMP Core 5.6-c138 79.159824, 2016/09/14-01:09:01        ">
   <rdf:RDF xmlns:rdf="http://www.w3.org/1999/02/22-rdf-syntax-ns#">
      <rdf:Description rdf:about=""/>
   </rdf:RDF>
</x:xmpmeta>
                                                                                                    
                                                                                                    
                                                                                                    
                                                                                                    
                                                                                                    
                                                                                                    
                                                                                                    
                                                                                                    
                                                                                                    
                                                                                                    
                                                                                                    
                                                                                                    
                                                                                                    
                                                                                                    
                                                                                                    
                                                                                                    
                                                                                                    
                                                                                                    
                                                                                                    
                                                                                                    
                           
<?xpacket end="w"?></metadata>
<defs>
    <style>
      .cls-1 {
        fill: none;
        stroke: #fa9300;
        stroke-width: 2px;
      }

      .cls-2 {
        fill: #fff;
        fill-rule: evenodd;
      }
    </style>
  </defs>
  <rect id="Прямоугольник_11_копия_2" data-name="Прямоугольник 11 копия 2" class="cls-1" x="1" y="1" width="55" height="55" rx="27.5" ry="27.5"/>
  <path id="Forma_1" data-name="Forma 1" class="cls-2" d="M1075.21,15305h-9.42a5.8,5.8,0,0,0-5.8,5.8v9.4a5.8,5.8,0,0,0,5.8,5.8h9.42a5.8,5.8,0,0,0,5.8-5.8v-9.4A5.8,5.8,0,0,0,1075.21,15305Zm3.94,15.2a3.98,3.98,0,0,1-3.94,4h-9.42a3.972,3.972,0,0,1-3.93-4v-9.4a3.886,3.886,0,0,1,3.93-3.9h9.42a3.9,3.9,0,0,1,3.94,3.9v9.4h0Zm-8.65-10.1a5.4,5.4,0,1,0,5.42,5.4A5.4,5.4,0,0,0,1070.5,15310.1Zm0,9a3.55,3.55,0,1,1,3.55-3.6A3.568,3.568,0,0,1,1070.5,15319.1Zm5.65-10.6a1.66,1.66,0,0,0-.97.4,1.487,1.487,0,0,0-.4,1,1.7,1.7,0,0,0,.4,1,1.66,1.66,0,0,0,.97.4,1.366,1.366,0,0,0,1.36-1.4,1.44,1.44,0,0,0-.4-1A1.631,1.631,0,0,0,1076.15,15308.5Z" transform="translate(-1042 -15287)"/>
</svg>
