<svg id="вк" xmlns="http://www.w3.org/2000/svg" width="57" height="57" viewBox="0 0 57 57">
  <metadata><?xpacket begin="﻿" id="W5M0MpCehiHzreSzNTczkc9d"?>
<x:xmpmeta xmlns:x="adobe:ns:meta/" x:xmptk="Adobe XMP Core 5.6-c138 79.159824, 2016/09/14-01:09:01        ">
   <rdf:RDF xmlns:rdf="http://www.w3.org/1999/02/22-rdf-syntax-ns#">
      <rdf:Description rdf:about=""/>
   </rdf:RDF>
</x:xmpmeta>
                                                                                                    
                                                                                                    
                                                                                                    
                                                                                                    
                                                                                                    
                                                                                                    
                                                                                                    
                                                                                                    
                                                                                                    
                                                                                                    
                                                                                                    
                                                                                                    
                                                                                                    
                                                                                                    
                                                                                                    
                                                                                                    
                                                                                                    
                                                                                                    
                                                                                                    
                                                                                                    
                           
<?xpacket end="w"?></metadata>
<defs>
    <style>
      .cls-1 {
        fill: none;
        stroke: #fa9300;
        stroke-width: 2px;
      }

      .cls-2 {
        fill: #fff;
        fill-rule: evenodd;
      }
    </style>
  </defs>
  <rect id="Прямоугольник_11_копия" data-name="Прямоугольник 11 копия" class="cls-1" x="1" y="1" width="55" height="55" rx="27.5" ry="27.5"/>
  <path id="Forma_1" data-name="Forma 1" class="cls-2" d="M1017.88,15321.8a0.381,0.381,0,0,0-.08-0.2,11.234,11.234,0,0,0-2.18-2.6h-0.03l-0.01-.1h-0.02c-0.49-.4-0.8-0.8-0.93-0.9a1.032,1.032,0,0,1-.16-1,11.463,11.463,0,0,1,1.03-1.6c0.31-.4.56-0.7,0.75-1,1.32-1.8,1.89-2.9,1.71-3.5l-0.06-.1a2.633,2.633,0,0,1-.36-0.2h-4.26a0.271,0.271,0,0,1-.15.1h-0.1a2.263,2.263,0,0,1-.13.2,0.3,0.3,0,0,0-.11.2,20.731,20.731,0,0,1-1.23,2.6,11.08,11.08,0,0,1-.78,1.3,5.924,5.924,0,0,1-.59.8,2.173,2.173,0,0,1-.44.4c-0.13.1-.23,0.2-0.3,0.1h-0.19a1.392,1.392,0,0,1-.26-0.3,1.206,1.206,0,0,1-.13-0.5,1.81,1.81,0,0,1-.04-0.4c-0.01-.2,0-0.4,0-0.6s0.01-.4.01-0.5c0-.3.01-0.6,0.02-1,0.01-.3.02-0.6,0.03-0.8s0.01-.4.01-0.7a2.175,2.175,0,0,0-.04-0.5,1.524,1.524,0,0,0-.12-0.4,1.2,1.2,0,0,0-.23-0.3c-0.11,0-.23-0.1-0.39-0.1a6.267,6.267,0,0,0-1.54-.2,7.645,7.645,0,0,0-2.74.3c-0.16.1-.31,0.2-0.44,0.3-0.13.2-.15,0.3-0.05,0.3a1.918,1.918,0,0,1,.97.5l0.07,0.2a4.3,4.3,0,0,1,.16.5,6.883,6.883,0,0,1,.1.9,9.3,9.3,0,0,1,0,1.5c-0.04.4-.07,0.7-0.11,0.9a1.405,1.405,0,0,1-.15.6,0.813,0.813,0,0,0-.14.3h-0.06a0.378,0.378,0,0,1-.31.1,1.022,1.022,0,0,1-.39-0.2,1.821,1.821,0,0,1-.47-0.4,5.142,5.142,0,0,1-.56-0.9,7.992,7.992,0,0,1-.64-1.2l-0.18-.3c-0.12-.3-0.27-0.6-0.47-1a12.549,12.549,0,0,1-.53-1.2,0.75,0.75,0,0,0-.27-0.4h-0.06a0.152,0.152,0,0,0-.18-0.1,0.3,0.3,0,0,0-.268-0.1h-3.139a0.992,0.992,0,0,0-.653.2l-0.046.1a0.312,0.312,0,0,0-.035.2,0.713,0.713,0,0,0,.069.3c0.458,1.1.957,2.2,1.5,3.2a22.272,22.272,0,0,0,1.4,2.5,12.714,12.714,0,0,0,1.213,1.8,7.643,7.643,0,0,0,.82,1.1,3.643,3.643,0,0,0,.32.4l0.28,0.3c0.19,0.1.45,0.4,0.81,0.6a5.574,5.574,0,0,0,1.18.8,6.021,6.021,0,0,0,1.51.7,9.866,9.866,0,0,0,1.67.2h1.32a2.548,2.548,0,0,0,.6-0.3l0.05-.1a0.362,0.362,0,0,0,.09-0.2,1.544,1.544,0,0,0,.04-0.3,3.119,3.119,0,0,1,.07-0.9,3.759,3.759,0,0,1,.2-0.7,3.151,3.151,0,0,1,.24-0.3,0.7,0.7,0,0,1,.2-0.2h0.09a0.615,0.615,0,0,1,.65.2,3.529,3.529,0,0,1,.69.7,7.319,7.319,0,0,1,.79.9,3.8,3.8,0,0,0,.8.7l0.23,0.2a1.072,1.072,0,0,0,.6.2,1.544,1.544,0,0,0,.64.1h2.93a1.275,1.275,0,0,0,.68-0.2,0.594,0.594,0,0,0,.28-0.3,0.9,0.9,0,0,0,.01-0.4A0.5,0.5,0,0,0,1017.88,15321.8Z" transform="translate(-978 -15287)"/>
</svg>
